<?xml version="1.0" encoding="UTF-8"?><svg id="Layer_1" xmlns="http://www.w3.org/2000/svg" xmlns:xlink="http://www.w3.org/1999/xlink" viewBox="0 0 20 20"><defs><style>.cls-1{fill:url(#linear-gradient);}.cls-2{fill:#231f20;}</style><linearGradient id="linear-gradient" x1="15.17" y1="17.4" x2="3.51" y2=".71" gradientUnits="userSpaceOnUse"><stop offset="0" stop-color="#8cd5e3"/><stop offset="1" stop-color="#b7dec0"/></linearGradient></defs><circle class="cls-1" cx="10" cy="10" r="9.51"/><g><path class="cls-2" d="M4.49,12.31l1.52-1.52c.44-.44,.44-1.15,0-1.58l-.26-.26-1.26-1.26c-.71-.71-.21-1.91,.79-1.91h0c.3,0,.58,.12,.79,.33l3.1,3.1c.44,.44,.44,1.15,0,1.58l-3.1,3.1c-.21,.21-.49,.33-.79,.33h0c-1,0-1.5-1.21-.79-1.91Z"/><path class="cls-2" d="M13.93,13.89l-3.1-3.1c-.44-.44-.44-1.15,0-1.58l3.1-3.1c.21-.21,.49-.33,.79-.33h0c1,0,1.5,1.21,.79,1.91l-1.26,1.26h-.02l-.26,.26c-.43,.44-.43,1.14,0,1.58l1.53,1.53c.71,.71,.21,1.91-.79,1.91h0c-.3,0-.58-.12-.79-.33Z"/></g></svg>